<svg width="232" height="132" viewBox="0 0 232 132" fill="none" xmlns="http://www.w3.org/2000/svg">
<path d="M116 124L110.511 129.111C111.93 130.634 113.918 131.5 116 131.5C118.082 131.5 120.07 130.634 121.489 129.111L116 124ZM229.489 13.1106C232.312 10.079 232.142 5.33332 229.111 2.5108C226.079 -0.311733 221.333 -0.142243 218.511 2.88936L229.489 13.1106ZM13.4892 2.88936C10.6667 -0.142243 5.92097 -0.311733 2.88936 2.5108C-0.142243 5.33332 -0.311733 10.079 2.5108 13.1106L13.4892 2.88936ZM121.489 129.111L229.489 13.1106L218.511 2.88936L110.511 118.889L121.489 129.111ZM121.489 118.889L13.4892 2.88936L2.5108 13.1106L110.511 129.111L121.489 118.889Z" fill="white"/>
</svg>
